<svg width="246" height="193" xmlns="http://www.w3.org/2000/svg" xmlns:xlink="http://www.w3.org/1999/xlink" class="hidden lg:block"><defs><path id="a" d="M0 .555h4.218v7.938H0z"></path></defs><g fill="none" fill-rule="evenodd"><g fill="#000"><path d="M79.248 121.922c.59 6.597-.449 14.144 1.328 20.868 3.391.199 6.637-.095 9.863-.19 5.058-.146 10.965.772 17.075-.38.332-9.215-.304-18.414-.536-26.74-7.614-.796-18.827-.018-27.92-.196.25 1.793.028 4.825.19 6.638m-1.138-7.777c5.705.237 11.753-.15 19.348 0 2.995.06 10.675-.006 10.675-.006.202 1.645.44 12.425.516 14.423.187 4.804.46 10.926.226 15.177-8.79.925-20.535.694-30.018.555-.184-3.469-.171-5.874-.369-9.092-.45-7.326-.619-13.62-.378-21.057"></path><path d="M91.785 127.191c2.324.035 3.885-.139 6.313-.104-.07-.59-.104-1.422-.104-1.422-1.19-.081-5.24.001-6.278-.034.021.546-.02.945.07 1.56m-7.378-7.687c1.157 1.245 1.545 2.375 2.694 3.63-.804 1.47-1.7 2.521-2.878 4.047h3.283c1.284-1.387 1.74-2.194 2.786-3.806-1.075-1.49-1.838-2.467-2.555-3.964-1.423.07-2.22.06-3.33.093m-3.377-2.497c9.15-.144 16.28-.324 24.204-.016.218 7.554.448 14.816.382 23.143-8.625.063-15.288.414-23.66.183-.185-1.943-.964-17.88-.926-23.31"></path></g><g fill="#000"><path d="M140.391 118.447c-1.537-1.427-3.562-3.665-4.906-4.438-2.554 3.711-6.202 8.232-9.812 11.914-1.014 1.036-3.064 2.995-3.036 3.972.033 1.117 2.425 3.08 3.27 3.97 3.89 4.104 7.538 7.239 11.498 10.434 1.487-.709 2.508-1.867 3.454-3.192 2.95-4.128 6.002-8.097 8.643-12.38-2.396-3.523-5.964-7.357-9.11-10.28m-4.907-6.307h.702c4.06 2.387 8.381 7.714 12.147 11.681 1.27 1.339 3.77 3.295 3.74 5.14-.027 1.485-2.846 4.806-3.74 6.073-1.491 2.116-2.61 3.158-4.205 5.373-1.327 1.59-3.433 3.986-5.84 5.607-2.396 1.613-4.23-.781-6.307-2.804-3.179-3.089-4.794-5.166-7.71-8.643-1.237-1.474-3.346-3.372-3.27-4.906.062-1.266 1.915-2.895 3.505-4.439 3.018-2.93 4.886-5.08 7.24-8.176 1.36-1.787 2.462-3.257 3.738-4.906"></path><path d="M135.953 118.915c.566 1.442 4.017 5.736 5.877 7.993-.975.267-1.972.267-3.54.531.358 1.438.6 2.621 1.768 3.452.909.646 2.66 1.033 3.63 1.46-.413 2.076-1.156 2.193-2.08 3.761-1.41-.542-2.345-1.416-3.717-2.478-.23-.18-1.107-1.328-1.107-1.328-.244 1.837-2.9 4.147-5.621 3.565-.99-1.463-1.106-2.038-1.859-2.921 1.095-.462 2.942-.73 3.983-1.528 1.175-.897 1.294-2.317 1.02-3.938-1.086-.111-2.215-.31-3.54-.266 1.77-2.39 4.305-6.692 5.186-8.303"></path></g><g fill="#000" fill-rule="nonzero"><path d="M136.131 178.18a.546.546 0 00-.056-.06 2.33 2.33 0 00-.127-.495 8.664 8.664 0 00-1.12-1.77l-4.168-5.779v-.043a.568.568 0 00-.14-.37 40.499 40.499 0 01-.02-2.854c.035-1.208.108-2.435.178-3.623.09-1.502.182-3.06.198-4.59 0-.278.023-.612.046-.967.082-.854.082-1.714 0-2.568a3.493 3.493 0 00-.612-1.683 3.03 3.03 0 00-2.054-.862 19.705 19.705 0 00-3.213.063c-.402.03-.743.057-.98.06-2.018.032-4.108-.019-6.12-.066-1.495-.035-3.042-.07-4.557-.075-1.674 0-3.178.034-4.619.116-.272.017-.612.014-1.003.01-.916-.04-1.833.017-2.736.17a2.622 2.622 0 00-1.71.984 4.33 4.33 0 00-.642 1.885 16.853 16.853 0 00-.026 3.042c.022.398.042.765.045 1.088.016 1.914 0 3.637-.042 5.268a96.799 96.799 0 01-.24 4.562.58.58 0 00-.183.42c0 .136.05.267.137.37l-3.929 5.75c-.061.085-.136.178-.216.28a4.394 4.394 0 00-.858 1.413c-.05.188-.062.383-.035.575a7.451 7.451 0 00-.17 1.168c-.021.39.021.782.126 1.16.134.456.406.86.78 1.155a4 4 0 001.698.74c.756.158 1.524.253 2.295.283.626.032 1.264.035 1.88.042.484 0 .966 0 1.448.022 2.27.075 7.012.144 11.798.17 1.556.01 3.05.014 4.43.014 3.518 0 6.272-.027 7.386-.08a32.482 32.482 0 004.013-.403 8.202 8.202 0 002.72-.88c.532-.352.86-.938.885-1.575a3.224 3.224 0 00-.487-2.067zm-.705 1.723a.892.892 0 01-.355.85 6.894 6.894 0 01-2.283.714c-1.276.204-2.563.33-3.854.378-1.224.058-4.573.087-9.396.082-4.964 0-11.257-.049-14.123-.131-1.09-.03-2.202 0-3.308-.046a12.872 12.872 0 01-2.099-.243 3.22 3.22 0 01-1.048-.386 1.224 1.224 0 01-.563-.688c-.07-.26-.1-.529-.087-.798v-.007c.096.056.195.107.296.153a6.623 6.623 0 001.567.347c.643.063 1.345.104 2.142.127.602.017 1.206.023 1.809.03.459 0 .908.008 1.36.018.863.018 1.782.027 2.786.027h1.213c1.47-.01 2.94-.04 4.411-.069 1.622-.03 3.247-.062 4.876-.072 1.071-.013 2.168.017 3.224.045.892.023 1.784.046 2.678.047.96-.009 1.784-.02 2.57-.067l6.334-.406c.075-.007.172-.013.283-.02.455-.01.907-.077 1.345-.2.05-.017.078-.049.124-.067.049.123.082.251.098.382zm-31.556-20.116c0-.326-.026-.7-.05-1.1a19.827 19.827 0 01-.04-2.332c-.002-.67.175-1.33.512-1.91.393-.36.907-.556 1.44-.55a15.545 15.545 0 012.079-.045c.39 0 .74.016 1.016 0a80.849 80.849 0 014.546-.075c1.415.011 2.838.045 4.259.078 2.125.05 4.318.101 6.449.07.242 0 .592-.03 1.002-.063a24.974 24.974 0 012.502-.106c.75.023 1.476.086 1.721.4.287.452.434.979.424 1.514.027.646.017 1.294-.03 1.939-.022.362-.04.696-.04.977 0 1.53-.079 3.074-.154 4.57-.058 1.186-.119 2.41-.14 3.619-.019.997 0 1.853.032 2.668h-.081a725.746 725.746 0 00-5.771-.06h-.056c-.527 0-1.054-.015-1.58-.016-2.023 0-4.06 0-6.094.009a.522.522 0 00-.095-.03.636.636 0 00-.239.03c-1.133 0-2.249.015-3.375.023a.555.555 0 00-.13-.05.565.565 0 00-.335.054c-.918 0-1.836.011-2.736.019a.612.612 0 00-.19-.06.572.572 0 00-.317.066l-4.743.032c.073-.972.13-2.033.172-3.302.057-1.88.072-3.906.042-6.37zm2.099 10.852h2.003c-.043.343-.086.676-.129 1h-.107c-.802.013-1.493.04-2.085.076.015-.039.036-.078.05-.117.111-.313.2-.633.268-.959zm6.522.008h2.546c-.024.321-.046.642-.055.971l-2.682.046c.014-.136.023-.274.037-.411l.043-.41.018-.196h.093zm7.826 3.248l-.162-.982c1.146-.02 2.275-.054 3.39-.092l.227.936a200.164 200.164 0 01-3.455.138zm-11.475-1.005l2.13-.03a47.9 47.9 0 00-.044 1.159l-1.49-.025-.764-.01c.02-.121.043-.228.061-.352.046-.244.074-.497.109-.742h-.002zm3.352-.03c.963.027 1.88.045 2.777.057.008.372.016.742.031 1.111h-.32c-.844.012-1.694.01-2.541 0 .018-.384.032-.776.055-1.167h-.002zm3.988.073h2.754c.067.333.13.668.19 1.003-.908.026-1.876.05-2.926.072-.006-.364-.01-.719-.017-1.075h-.001zm7.038-1.442l-3.298.052-.153-.887h3.243l.208.835zm-4.59-.186c.012.085.032.171.047.258l-2.497.04c0-.314.017-.63.032-.952h2.344c.034.22.05.447.083.654h-.01zm-7.574.336c-.566-.009-1.276-.015-2.053-.014.043-.328.09-.653.131-.985h2.054c-.04.338-.092.675-.123 1h-.009zM105 173.237c.047-.102.08-.196.127-.297l2.54-.035c-.054.358-.11.712-.167 1.062-.534 0-1.071-.022-1.6-.022-.409 0-.82 0-1.225.011.106-.25.218-.491.325-.719zm.895 1.876c.459 0 .929.014 1.392.021-.082.432-.17.847-.26 1.246-1.07-.058-1.966-.127-2.6-.213a2.754 2.754 0 01-.576-.153c.104-.306.21-.603.32-.881.578-.013 1.152-.02 1.724-.02zm2.586.038c.313 0 .628 0 .942.014.487.009.988.01 1.483.02 0 .443-.019.887-.032 1.332-.972-.021-1.849-.049-2.66-.082.092-.415.182-.84.262-1.284h.005zm3.61.049c.397 0 .785.015 1.182.015.477 0 .956 0 1.432-.012h.329c.018.46.027.918.035 1.377a267.73 267.73 0 01-3.039-.034c.023-.454.045-.9.061-1.346zm4.131-.026c.952-.02 2-.044 3.085-.076 0 .035.01.07.014.107.052.413.104.829.177 1.239 0 .04.015.072.023.112-.901.01-1.824.02-2.781.021h-.505c-.005-.471-.008-.936-.017-1.403h.004zm4.4 1.071c-.065-.393-.108-.793-.152-1.19.459-.016.928-.03 1.398-.05.75-.028 1.477-.06 2.19-.096.048.202.099.404.153.605.08.293.153.589.217.887v.034c-1.139.043-2.392.076-3.744.1-.022-.094-.05-.178-.066-.29h.005zm4.607-1.395a176.56 176.56 0 003.75-.245c.285.541.528 1.028.681 1.388a3.24 3.24 0 01-.596.153c-.82.096-2.023.179-3.495.244l-.34-1.54zm-.257-1.16c-.065-.306-.139-.612-.208-.918 1.071-.041 2.121-.086 3.13-.135.154.268.307.545.477.839-1.105.085-2.234.157-3.403.22l.004-.006zm-.501-2.225c-.02-.082-.034-.163-.054-.245-.05-.194-.107-.385-.153-.576h2.407c.085.108.264.384.51.783l-2.71.038zm-21.206-.433a.52.52 0 00.072-.306.575.575 0 00.069-.092h1.33c-.051.184-.077.354-.154.556-.188.505-.433 1.022-.693 1.57-.213.448-.44.928-.667 1.464a.577.577 0 00-.09.219c-.214.52-.429 1.086-.63 1.736a.692.692 0 00.195.724c.383.25.822.403 1.278.445.719.115 1.853.211 3.263.288a.592.592 0 00.084.038.577.577 0 00.144.017.557.557 0 00.129-.037c1.768.089 3.946.153 6.377.162h1.404c.082.05.175.079.271.083h.015a.575.575 0 00.21-.084c1.403 0 2.797-.017 4.145-.04a.562.562 0 00.258.084.511.511 0 00.166-.026c.036-.01.052-.052.084-.069 3.534-.072 6.658-.215 8.392-.405a6.52 6.52 0 001.635-.306.734.734 0 00.47-.568.59.59 0 00-.015-.234 21.974 21.974 0 00-1.645-3.366 49.35 49.35 0 00-1.354-2.257c.346 0 .692 0 1.037-.012l.522-.01c.025.036.023.085.055.116.032.03.041 0 .058.018.408.575.813 1.153 1.215 1.732.52.751 1.037 1.502 1.576 2.241.408.567.872 1.176 1.418 1.86l.046.056a8.8 8.8 0 01.852 1.224c.043.083.106.199.153.306a.545.545 0 00-.026.063.626.626 0 00.008.25 1.646 1.646 0 01-.223.063c-.303.055-.61.082-.918.08-.118 0-.222 0-.297.012l-6.305.375c-.745.043-1.564.064-2.494.054-.881 0-1.761-.03-2.64-.054-1.07-.03-2.178-.072-3.277-.057-1.672.016-3.34.05-5.004.088-1.43.03-2.857.06-4.284.078-1.428.017-2.745.02-3.965 0-.459-.008-.918-.01-1.377-.011-.595 0-1.19 0-1.784-.017a27.84 27.84 0 01-2.068-.112 5.612 5.612 0 01-1.091-.165 1.405 1.405 0 01-.74-.419c0-.041.012-.083.02-.125a.525.525 0 00-.027-.271v-.026c.162-.313.364-.602.602-.862.091-.11.176-.212.248-.306l3.967-5.765z"></path><path d="M120.079 160.858a.657.657 0 00.712-1.103l-.523-.415c-.306-.26-.275-.321-.254-.363a3.5 3.5 0 01.44-.58c.103-.122.215-.25.315-.379a.543.543 0 00-.042-.765.51.51 0 00-.391-.133.534.534 0 00-.372.171c-.109.107-.217.208-.323.306-.41.305-.727.717-.918 1.19a1.622 1.622 0 00.682 1.581l.674.49zM111.36 160.094a.532.532 0 00.414-.058.543.543 0 00.244-.313h.013a.612.612 0 00.084-.114c.148-.339.466-.573.834-.612.279.032.534.175.708.395l.05.052c.078.073.147.154.207.242.08.175.226.31.407.376.179.069.377.06.55-.023a.72.72 0 00.362-.938 2.234 2.234 0 00-2.32-1.53 2.009 2.009 0 00-1.941 1.62 1.16 1.16 0 00-.01.268.55.55 0 00.399.635zM111.478 164.24a.543.543 0 00-.143.995 9.806 9.806 0 005.19 1.574h.229a9.959 9.959 0 005.369-1.855.696.696 0 00.174-.966.685.685 0 00-.447-.286.675.675 0 00-.52.113 8.778 8.778 0 01-4.63 1.708 8.658 8.658 0 01-4.807-1.224.539.539 0 00-.415-.058z"></path></g><text font-family="NanumPen, Nanum Pen Script" font-size="21" fill="#191A1B"><tspan x="133" y="107">version control</tspan></text><text font-family="NanumPen, Nanum Pen Script" font-size="21" fill="#191A1B"><tspan x="0" y="140">dev tools</tspan></text><text font-family="NanumPen, Nanum Pen Script" font-size="21" fill="#191A1B"><tspan x="142" y="195">Your HTML</tspan></text><path d="M123.065 85.977c-.028.105-.098.127-.149.226-.044.08-.055.219-.087.299-.064.155-.089.329-.163.48-.204.43-.43.849-.674 1.258-.08.135-.162.268-.25.398l-.022.03-.006.01-.345.547c-.063.104-.215.362-.24.378-.04.028-.148.279-.173.318-.017.03-.18.343-.223.424a2.122 2.122 0 01-.214.23c-.139.135-.398.408-.473.597l-.002-.002-.138.185-.026.02a.443.443 0 00-.092.14l-1.22 1.539c-.123.17-.305.4-.421.486a.71.71 0 00-.138.08c-.035.052-.077-.052-.111-.068-.032-.035-.05.04-.256-.214-.082-.083-.215-.264-.306-.333-.167-.127-.266-.175-.438-.3-.38-.277-.748-.57-1.115-.864a1.828 1.828 0 01-.256-.271c-.131-.157-.241-.298-.429-.373-.173-.07-.318-.133-.446-.286-.206-.247-.476-.416-.719-.622a12.735 12.735 0 01-1.078-.987c-.102-.107-.17-.256-.294-.33-.311-.186-.489-.473-.757-.747-.109-.112-.518-.21-.699-.066-.105.084-.18.235-.284.323-.241.203-.408.766-.245.899.173.14.368.254.543.39.183.144.342.318.534.45.152.105.373.129.498.259.134.14.319.207.437.386.171.257.462.4.693.602.51.446 1.04.884 1.531 1.356.312.299.695.525 1.024.789l1.527 1.258.591.486c.048.026.099.11.145.089l.133-.14.266-.277.523-.554.323-.371.588-.674c.266-.306.419-.574.741-.822l.046-.041h.001l.007-.006c.142-.127.27-.301.373-.46l.722-.906c.281-.343.474-.755.701-1.122a31.37 31.37 0 001.223-2.12c.243-.381.626-.697.828-1.09a.476.476 0 00.029-.357c-.043-.131-.006-.15-.053-.21-.055-.072-.183-.15-.341-.216-.433-.183-1.091-.308-1.144-.103" fill="#020303"></path><path d="M110.04 18.762c.743-1.336 1.517-2.42 2.377-3.51l2.166-2.75c.12-.17.929-.124 1.222.08.297.203.562.99.372 1.243-.677.954-1.475 1.766-2.265 2.514-.73.685-1.5 1.352-2.22 2.081-.246.26-.44.564-.732.776-.131.091-.554.032-.747-.07-.164-.086-.163-.34-.173-.364" fill="#010202"></path><g transform="translate(107 23.748)"><mask id="b" fill="#fff"><use xlink:href="#a"></use></mask><path d="M1.528.557c.808.303.718.885.848 1.388.207 1.062.375 2.139.753 3.162.24.7.382 1.467.85 2.072.353.442.32.774-.132 1.263-.053.06-.29.07-.342.016C2.097 7.01 1.24 5.318.52 3.396.38 3.01.178 2.636.065 2.235A1.196 1.196 0 01.29 1.062C.574.734.943.53 1.528.557" fill="#010202" mask="url(#b)"></path></g><path d="M119.393 6.365c.541-.977 1.4-2.575 1.544-3.285.185-.682.208-1.444.235-2.134.05-.343.3-.658.55-.902.072-.076.49.227.765.376 1.197.617.72 1.628.472 2.461-.114.442-.537 1.268-1.024 1.964-.484.706-1.009 1.344-1.244 1.726-.559.887-.818.847-1.319.02-.07-.117.04-.356.021-.226M135.49 45.038c-1.414-1.015-2.934-1.395-4.22-1.79-1.22-.35-2.353-.688-3.358-1.075-.194-.075.177-.697.562-.938.383-.238 1.474-.488 1.749-.374 1.052.389 2.026.843 2.977 1.312.94.479 1.853 1.01 2.645 1.73.276.249.622.519.749.818.053.134-.22.334-.434.378a.553.553 0 01-.16.002 2.113 2.113 0 01-.231-.016l-.28-.047M137.189 50.51c.655.252.408.907.191 1.417-.425 1.114-1.282 2.127-2.234 2.953-.655.567-1.581 1.007-2.183 1.477-.452.356-.961.436-1.822.29-.118-.024-.266-.16-.222-.2 1.227-1.043 2.709-2.057 3.299-3.6.123-.298.122-.614.153-.923.029-.31.369-.639.92-.91.279-.134.591-.259.957-.349.174-.045.386-.083.556-.11.125-.026.254-.042.385-.045M121.376 39.464c-1.09-.206-2.8-.78-3.605-1.04-.76-.236-1.546-.414-2.26-.84-.348-.22-.549-.734-.625-1.143-.023-.126.423-.302.653-.47.962-.684 1.472.057 2.215.416.382.178 1.044.588 1.735.962.721.384 1.48.75 1.928.88 1.061.313 1.042.54.201 1.198-.117.092-.38.053-.242.037M116.37 78.83c-.152-1.557-.233-2.882-.177-4.216.073-1.24.245-2.5.619-3.694.067-.244.868-.456 1.202-.324.336.133.819.754.755 1.019-.523 2.019-.994 4.076-1.281 6.176-.047.366-.014.759-.14 1.09-.056.147-.426.257-.634.232-.176-.02-.323-.263-.344-.282M116.98 84.752c.726.229.748.858.826 1.392.193 1.131.216 2.3.342 3.451.076.787.002 1.618.24 2.362.187.552.03.895-.525 1.245-.07.044-.292-.011-.319-.078-.774-1.8-1.054-3.596-1.567-5.492-.098-.379-.249-.745-.373-1.12-.232-.763.347-1.698 1.376-1.76M120.43 63.797a11.54 11.54 0 011.072-1.784c.41-.606.913-1.137 1.16-1.44.506-.588.944-1.132 1.556-1.472.302-.17.93-.122 1.43-.076.155.015.271.38.412.61.556.936-.712 1.213-1.426 1.715-.175.14-.437.323-.743.527-.312.203-.556.442-.862.678-.563.496-1.089 1.06-1.3 1.422-.5.83-.736.852-1.308.053-.079-.113.021-.369.008-.233" fill="#010202"></path></g></svg>