<svg version="1.2" xmlns="http://www.w3.org/2000/svg" viewBox="0 0 3969 1675" width="3969" height="1675">
	<title>&lt;Path&gt;</title>
	<style>
		.s0 { fill: #090909 } 
	</style>
	<path id="&lt;Path&gt;" class="s0" d="m683.9 407.5c167.5-80.8 351.8-145.7 544.1-197.1 198.9-53.1 408.1-91.8 620.3-113.4 208.9-21.3 423.4-25.3 633.3-7.7 201.9 17 406.6 54.9 584 121.7 172.9 65.1 320.5 159.9 424.5 271.7 100.5 108.2 160.7 234.3 149.3 361.8-9.4 106.5-74 209.5-166.4 296.4-77 72.4-177.9 133-291.7 179.6-118.8 48.8-250.2 82.5-385.5 105.3-144.8 24.5-293.9 36.4-443.1 39.9-156.9 3.7-314.3-1.9-470.1-14.5-153.9-12.5-306.5-32-456.5-57.7-142.6-24.4-283.1-54.4-419.5-91-117.9-31.6-233.2-68.4-341.4-112.7-160.4-65.7-320.6-153.2-396.9-270.2-39.3-60.4-50-127.2-27.8-191.4 24.9-72 84-137.5 156.2-193.4 137.7-106.6 319.7-190.7 505.5-257.1 180.2-64.4 373.9-111.7 573.5-142.3 200.2-30.7 406.1-44.2 611.5-40.9 205.2 3.3 409.6 23.5 606.8 61 196 37.2 384.3 91.6 557.3 163 185.8 76.6 354.3 174.7 470.9 298 112.3 118.9 169 262.3 97.1 398.3-72.9 137.7-256.1 236.3-437.3 311.7-191.7 79.8-400.3 140.6-617.3 183.5-217.4 43-442.5 68.6-668.8 78.2-227.9 9.8-457.6 4.1-683.8-16.7-200.1-18.3-399.8-46.6-590.3-91.5-170.6-40.1-339.5-94.3-475.9-174-136-79.6-231.8-186.9-235.2-309-4.1-145.5 118.1-278.3 265.7-380.6 118.3-82 258.5-148.6 408.8-202.8 130.8-47.1 269-84.8 411-114.6 148-31 300.3-53.4 454.2-67.1 155-13.8 312.1-18.7 468.3-13.8 152.4 4.7 304.2 19 451.7 45 141.5 24.9 278.9 60.6 405.4 109.5 123.8 47.7 235.9 108 329 180 96.8 74.9 171 162.1 220.6 254.8 37.3 69.9 68.9 147 48.6 221.3-21.5 78.4-102.8 141.2-184.4 196.8-154.2 105.1-346.9 189.3-556 238.9-20.1 4.8-11.4 26 8.8 21.2 222.7-52.9 425.5-136.5 589.5-249.6 82.5-56.9 162.7-122.4 183.6-202.1 20.3-77.2-7.7-155.7-45.6-228.7-50.6-97.3-126.4-188.1-226.3-267.3-94.9-75.2-210.9-138.4-338.3-188.5-130.3-51.1-272.5-88.7-418.9-114.6-151.8-26.9-308.6-41.5-465.6-46.4-161.8-5-323.9 0.8-484.3 15.4-158.6 14.4-315.5 37.9-467.7 70.7-146 31.3-288.4 71.1-422.5 120.6-157.2 58.1-304.1 130.3-425.1 218.7-146.6 107.1-263.1 244.5-253.7 392.7 8 125.9 106.6 237.5 247.3 319.9 141.1 82.6 314.3 138.8 490.7 180.7 194.5 46.2 399.1 75.3 603.6 94.1 232.4 21.4 467.9 28.1 702.2 17.8 233.6-10.2 466-36.8 689.8-82.5 222-45.3 436.1-109.2 631.2-192.8 185.5-79.5 365.3-183.4 437.3-325.8 71.1-140.4 14.3-289.9-99.7-413-118.4-127.9-290.7-230.4-481.4-310.3-178-74.6-373.1-131.6-575.6-170.6-202.2-38.8-412.4-59.8-622.9-63.2-211.7-3.4-424.3 11-630.4 42.9-205.4 31.8-404.8 81.4-589.9 148.3-92 33.2-180.5 70.9-264.2 112.7-91.1 45.4-178.6 95-251.9 153-74.1 58.7-135.4 126.7-161.5 201.7-23.3 67.3-15.5 137.6 23 201.8 75.6 125.9 240.6 220.4 410.1 291.5 111.3 46.6 230.5 84.7 352.3 117.9 138.7 37.9 281.8 68.9 427 94 156.4 27.1 315.5 47.3 476 60.2 159.9 12.8 321.5 18.3 482.6 13.9 154.5-4.3 309.4-17.4 459.1-43.7 139-24.5 274.8-60.6 396.1-111.9 119.6-50.6 223.7-115.8 303.6-193.4 95.1-92.4 158.3-201.5 165.2-313.6 8.2-131-55.8-261.1-160.1-371.7-108.1-114.6-260.5-212.2-438.7-278.9-183.2-68.7-393-106.9-601.1-124.4-216.9-18.4-436.9-12.5-652.4 10.8-216.8 23.5-427.7 65.4-629 123.2-187.7 53.9-366.1 122.8-528.4 205-6.5 3.3-0.3 10.7 6.5 7.4z"/>
</svg>