<svg version="1.2" xmlns="http://www.w3.org/2000/svg" viewBox="0 0 1833 474" width="1833" height="474">
	<title>The Arena Logo</title>
	<style>
		.s0 { fill: #ffffff } 
	</style>
	<path id="laser tag + rock climb + mini go" class="s0" aria-label="laser tag + rock climb + mini golf"  d="m62 398.3q0-1.1 0.9-1.1h8.5q0.9 0 0.9 1.1v34.4q0 0.7 0.7 0.7h18.8q1 0 1 0.9v5.6q0 0.5-0.2 0.8-0.3 0.3-0.9 0.3h-28.4q-0.8 0-1.1-0.3-0.2-0.3-0.2-0.9zm51 42.6q-0.5 0-0.7-0.5-0.3-0.4 0-1.2l14.6-40.9q0.3-0.6 0.6-0.9 0.3-0.3 1-0.3h8.8q1.3 0 1.8 1.3l14.6 40.9q0.2 0.5 0 1.1-0.2 0.5-0.7 0.5h-8.7q-0.9 0-1.1-0.8l-3.1-8.6q-0.1-0.3-0.2-0.5-0.1-0.2-0.6-0.2h-14.4q-0.5 0-0.7 0.6l-3.2 8.8q-0.1 0.3-0.4 0.5-0.2 0.2-0.8 0.2zm14.2-17.9h9.7q0.8 0 0.5-1l-4.9-13.8q-0.2-0.4-0.4-0.4-0.2 0-0.4 0.4l-5 13.8q-0.4 1 0.5 1zm73.1-15.5q-1.3-1.5-3.3-2.6-1.9-1.1-5.4-1.1-3.7 0-5.5 1.4-1.9 1.3-1.9 3.3 0 0.7 0.4 1.6 0.3 0.8 1.4 1.6 1.1 0.7 3 1.3l9.3 2.7q5.5 1.4 7.9 4.7 2.5 3.3 2.5 7.6 0 4.1-2.1 7.2-2.1 3-6.1 4.7-3.9 1.6-9.4 1.6-4 0-7.5-0.9-3.5-0.9-6.2-2.6-2.7-1.8-4.2-4.1-0.3-0.6-0.2-0.9 0-0.5 0.5-0.9l4.6-3.1q0.7-0.4 1.1-0.4 0.5 0.1 0.8 0.5 1.4 1.8 2.8 3 1.4 1.1 3.3 1.7 1.8 0.5 4.3 0.5 3.9 0 6.2-1.2 2.3-1.2 2.3-3.7 0-1-0.5-1.9-0.5-0.9-1.6-1.5-1-0.7-2.8-1.3l-9-2.5q-3.4-1-5.8-2.9-2.4-1.8-3.6-4.3-1.2-2.5-1.2-5.2 0-3.8 2.1-6.8 2.1-3 5.9-4.7 3.8-1.7 8.9-1.7 3.4 0 6.3 0.7 2.9 0.8 5.3 2.1 2.3 1.4 3.8 3.3 0.2 0.3 0.4 0.8 0.1 0.3-0.4 0.7l-5 3.7q-0.3 0.2-0.6 0.2-0.3-0.2-0.8-0.6zm31.5-9.2q0-1.2 1-1.2h29.7q0.9 0 0.9 1l-0.1 5.4q0 1.2-1.2 1.2h-18.8q-1.1 0-1.1 0.9v8.6q0 1 0.8 1h12.6q1 0 1 0.9v5.7q0 0.4-0.3 0.6-0.2 0.2-0.7 0.2h-12.6q-0.8 0-0.8 0.7v9.3q0 0.8 0.6 0.8h20.2q1 0 1 0.9v5.6q0 0.4-0.2 0.7-0.3 0.3-0.9 0.3h-29.8q-1.3 0-1.3-1.2zm90.9 41q0.2 0.7-0.1 1.2-0.2 0.4-0.8 0.4h-8.7q-1 0-1.3-1l-6.3-16.5q-0.4-0.9-1.7-0.9h-5.6q-0.4 0-0.6 0.3-0.1 0.2-0.1 0.4v16.3q0 1.4-1.6 1.4h-7.5q-0.7 0-1-0.3-0.2-0.3-0.2-0.8v-41.5q0-1.1 0.9-1.1h18.4q7.9 0 12.3 3.1 4.4 3.1 4.4 8.9 0 3-1.1 5.4-1.1 2.3-2.9 3.9-1.9 1.6-4.1 2.3-0.5 0.2-0.2 0.9zm-17.1-23.8q3.4 0 5.1-1.4 1.9-1.5 1.9-4.2 0-2.9-1.9-4.4-1.8-1.5-4.8-1.5h-7.3q-1.1 0-1.1 1v9.5q0 1 0.8 1zm67.7-11.8v-5.5q0-0.5 0.3-0.8 0.3-0.3 0.9-0.3h33.9q0.6 0 0.8 0.3 0.3 0.3 0.3 0.8v5.5q0 0.9-1 0.9h-11.1q-0.6 0-0.6 0.5v34.7q0 1.1-1 1.1h-8.4q-0.9 0-0.9-1v-34.6q0-0.7-0.7-0.7h-11.4q-1.1 0-1.1-0.9zm51.7 37.2q-0.5 0-0.8-0.5-0.2-0.4 0-1.2l14.7-40.9q0.3-0.7 0.6-0.9 0.2-0.3 1-0.3h8.8q1.3 0 1.8 1.3l14.5 40.9q0.2 0.5 0 1.1-0.1 0.5-0.7 0.5h-8.6q-0.9 0-1.2-0.8l-3-8.6q-0.1-0.3-0.3-0.5-0.1-0.2-0.5-0.2h-14.4q-0.6 0-0.8 0.6l-3.1 8.7q-0.1 0.4-0.4 0.6-0.2 0.2-0.8 0.2zm14.2-17.9h9.7q0.8 0 0.5-1l-4.9-13.8q-0.2-0.4-0.5-0.4-0.1 0-0.3 0.4l-5 13.8q-0.4 1 0.5 1zm64.7 18.5q-5.9 0-10.4-2.8-4.4-2.8-6.9-7.8-2.4-5-2.4-11.7 0-7 2.6-12.1 2.5-5 7-7.8 4.6-2.8 10.7-2.8 4.8 0 8.6 1.9 3.7 1.8 6 4.6 2.4 2.8 3 6 0.2 0.9 0.1 1.2-0.2 0.3-0.8 0.4l-7.7 1.2q-0.6 0-0.7-0.2-0.2-0.3-0.3-0.7-0.3-2-1.5-3.6-1-1.6-2.8-2.5-1.7-1-4.1-1-2.9 0-5 1.5-2.1 1.6-3.2 4.9-1.1 3.3-1.1 8.6 0 5.7 1.1 9.1 1.2 3.3 3.3 4.9 2.2 1.4 5.2 1.4 1.9 0 3.3-0.5 1.5-0.6 2.5-1.5 1.1-1 1.7-2.2 0.7-1.2 1-2.5l0.1-1.7q0.2-0.9-0.6-0.9h-7.1q-0.5 0-0.7-0.2-0.3-0.2-0.3-0.8v-4.4q0-0.8 1-0.8h15.7q0.9 0 1.3 0.4 0.4 0.4 0.4 1v19.9q0 0.4-0.2 0.7-0.2 0.2-0.7 0.2h-1.9q-0.4 0-0.8-0.2-0.3-0.2-0.7-0.7l-1.7-4.3q-0.1-0.2-0.2-0.2-0.1 0-0.4 0.3-1 1.3-2.6 2.7-1.6 1.3-4 2.2-2.4 0.8-5.8 0.8zm100.7-25.6v5.5q0 1.6-1.9 1.6h-27.3q-0.9 0-1.3-0.3-0.3-0.4-0.3-1.2v-5.4q0-1.4 1.2-1.4h28.6q1 0 1 1.2zm-12.4 18.3h-5.4q-1.7 0-1.7-1.9v-27.3q0-0.9 0.4-1.2 0.3-0.4 1.1-0.4h5.5q1.3 0 1.3 1.2v28.6q0 1-1.2 1zm99.8 5.1q0.3 0.7 0 1.1-0.3 0.5-0.9 0.5h-8.6q-1 0-1.3-1.1l-6.4-16.5q-0.4-0.8-1.7-0.8h-5.6q-0.4 0-0.6 0.2-0.1 0.3-0.1 0.4v16.4q0 1.4-1.6 1.4h-7.5q-0.7 0-1-0.3-0.2-0.3-0.2-0.9v-41.5q0-1.1 0.9-1.1h18.5q7.9 0 12.2 3.1 4.4 3.2 4.4 9 0 3-1.1 5.3-1.1 2.4-2.9 4-1.9 1.5-4 2.3-0.6 0.2-0.3 0.9zm-17.1-23.8q3.4 0 5.2-1.4 1.8-1.5 1.8-4.3 0-2.9-1.8-4.3-1.9-1.5-4.9-1.5h-7.2q-1.2 0-1.2 1v9.5q0 1 0.9 1zm59.1 25.9q-6.3 0-10.8-2.6-4.6-2.7-7-7.7-2.5-5.1-2.5-12 0-7 2.5-12.1 2.6-5 7.1-7.7 4.5-2.8 10.7-2.8 6.1 0 10.6 2.8 4.5 2.7 7 7.7 2.5 5.1 2.5 12.1 0 6.9-2.5 11.9-2.4 5-6.9 7.7-4.6 2.7-10.7 2.7zm0-7.2q4.8 0 7.1-3.5 2.2-3.5 2.2-11.5 0-8.1-2.3-11.8-2.2-3.7-7-3.7-4.9 0-7.2 3.7-2.3 3.7-2.3 11.8 0 7.9 2.3 11.4 2.3 3.6 7.2 3.6zm62-37.7q3.5 0 6.4 1 3 0.9 5.4 2.7 2.3 1.8 3.8 4.1 1.6 2.4 2 5.2 0.3 0.9 0.1 1.2-0.1 0.3-0.7 0.4l-7.9 0.5q-0.6 0-0.7-0.2-0.2-0.2-0.3-0.7-0.6-3.1-2.5-5-1.9-2-5.3-2-4.4 0-6.9 3.6-2.5 3.5-2.5 11.5 0 7.9 2.4 11.5 2.4 3.5 7.2 3.5 3.4 0 5.9-1.7 2.4-1.7 4-5.8 0.3-0.5 1.3-0.4l5.8 1.3q0.3 0 0.5 0.3 0.3 0.3 0.2 1.1-0.3 1.3-1.2 2.9-0.8 1.7-2.3 3.5-1.4 1.7-3.5 3.1-2.1 1.5-4.8 2.5-2.8 0.8-6.4 0.8-6 0-10.6-2.8-4.5-2.9-6.9-8.1-2.4-5.1-2.4-11.9 0-6.8 2.4-11.7 2.4-5 6.9-7.7 4.5-2.7 10.6-2.7zm78.9 42.9q0.3 0.6 0.2 1-0.1 0.5-0.8 0.5h-8.9q-1.3 0-1.7-1l-9.5-18.5q-0.4-0.7-1.1 0.2l-5.3 6.3q-0.3 0.4-0.3 1.2v10.4q0 1.4-1.6 1.4h-7.4q-0.8 0-1.1-0.3-0.2-0.3-0.2-0.9v-41.5q0-1.1 0.9-1.1h8.5q0.9 0 0.9 1v17.6q0 0.6 0.2 0.6 0.2 0 0.5-0.3l14.3-18q0.3-0.5 0.7-0.7 0.5-0.2 1.2-0.2h7.1q0.8 0 1.1 0.4 0.3 0.4-0.1 0.9l-11.4 13.3q-0.4 0.6-0.1 1.4zm70.2-42.9q3.4 0 6.4 1 3 0.9 5.4 2.7 2.3 1.8 3.8 4.1 1.5 2.4 2 5.2 0.2 0.9 0.1 1.2-0.2 0.3-0.7 0.3l-8 0.6q-0.5 0-0.7-0.2-0.1-0.2-0.2-0.7-0.6-3.1-2.5-5-1.9-2-5.3-2-4.4 0-7 3.6-2.4 3.5-2.4 11.5 0 7.9 2.3 11.5 2.5 3.5 7.2 3.5 3.5 0 5.9-1.7 2.5-1.7 4.1-5.8 0.2-0.6 1.3-0.4l5.8 1.3q0.3 0 0.5 0.3 0.2 0.2 0.1 1.1-0.3 1.3-1.2 2.9-0.8 1.7-2.2 3.4-1.4 1.8-3.5 3.2-2.1 1.5-4.9 2.4-2.7 0.9-6.3 0.9-6.1 0-10.6-2.9-4.5-2.9-6.9-8-2.4-5.1-2.4-11.9 0-6.8 2.4-11.7 2.4-5 6.9-7.7 4.5-2.7 10.6-2.7zm41.1 1.7q0-1.1 1-1.1h8.4q1 0 1 1v34.4q0 0.8 0.6 0.8h18.8q1.1 0 1.1 0.9v5.6q0 0.4-0.3 0.7-0.2 0.3-0.8 0.3h-28.5q-0.7 0-1-0.3-0.3-0.3-0.3-0.9zm54.7-1.1h8.5q0.9 0 0.9 1v41.3q0 0.8-0.4 1.2-0.4 0.3-1.2 0.3h-7.4q-0.8 0-1.1-0.3-0.2-0.3-0.2-1v-41.4q0-1.1 0.9-1.1zm35.7 43.8q-1.3 0-1.3-1.4v-41.3q0-1.1 1-1.1h12.2q0.7 0 1 0.2 0.3 0.1 0.5 0.7l8.9 24.7q0.1 0.5 0.4 0.5 0.2 0 0.4-0.5l8.5-24.3q0.3-1.3 1.3-1.3h12.7q0.9 0 0.9 1v41.3q0 1.5-1.5 1.5h-7.6q-0.7 0-1-0.3-0.3-0.3-0.3-0.9v-29.4q0-0.4-0.2-0.4-0.2 0-0.3 0.5l-10.3 29.5q-0.4 1-1.3 1h-4.9q-1 0-1.3-1l-10.2-29.1q-0.1-0.6-0.4-0.5-0.2 0.1-0.2 0.5v29q0 0.6-0.2 0.8-0.2 0.3-0.8 0.3zm72.6 0q-0.5 0-0.8-0.3-0.3-0.3-0.3-0.8v-41.5q0-0.5 0.3-0.9 0.3-0.3 0.9-0.3h16q8.6 0 13.2 2.9 4.6 2.9 4.6 8.6 0 3.2-1.8 5.5-1.7 2.2-5.9 4-0.2 0.1-0.2 0.3 0 0.2 0.2 0.2 4.6 1.5 6.7 4 2 2.4 2 6.4 0 6-4.5 9-4.5 2.9-13.6 2.9zm10.1-7h6.5q3.8 0 5.7-1.6 1.9-1.6 1.9-4.2 0-1.9-0.9-3.2-1-1.3-2.6-1.9-1.6-0.7-3.7-0.7h-6.6q-1.2 0-1.2 1v9.5q0 1.1 0.9 1.1zm0-18.8h6.9q1.3 0 2.5-0.3 1.2-0.3 2.1-1 1-0.7 1.5-1.7 0.6-1 0.6-2.3 0-2.8-2.1-4.3-2-1.5-5.2-1.5h-6q-1.2 0-1.2 1v9.1q0 1 0.9 1zm106 0.7v5.5q0 1.7-2 1.7h-27.3q-0.9 0-1.2-0.4-0.3-0.3-0.3-1.1v-5.5q0-1.3 1.1-1.3h28.6q1.1 0 1.1 1.1zm-12.4 18.4h-5.5q-1.6 0-1.6-2v-27.3q0-0.9 0.3-1.2 0.4-0.3 1.1-0.3h5.5q1.4 0 1.4 1.1v28.6q0 1.1-1.2 1.1zm65.5 6.7q-1.3 0-1.3-1.4v-41.3q0-1.1 1-1.1h12.3q0.6 0 0.9 0.2 0.3 0.1 0.5 0.7l8.9 24.7q0.2 0.5 0.4 0.5 0.2 0 0.4-0.5l8.5-24.3q0.4-1.3 1.3-1.3h12.7q0.9 0 0.9 1v41.3q0 1.5-1.5 1.5h-7.6q-0.7 0-1-0.3-0.2-0.3-0.2-0.9v-29.4q0-0.4-0.3-0.4-0.2 0-0.3 0.5l-10.3 29.5q-0.4 1-1.2 1h-4.9q-1 0-1.3-1l-10.2-29.1q-0.2-0.6-0.5-0.5-0.1 0.1-0.1 0.5v29q0 0.6-0.3 0.8-0.1 0.3-0.8 0.3zm72.5-43.8h8.4q0.9 0 0.9 1v41.3q0 0.8-0.4 1.2-0.3 0.3-1.2 0.3h-7.4q-0.8 0-1.1-0.3-0.2-0.3-0.2-1v-41.4q0-1.1 1-1.1zm63.6 0h6.5q0.8 0 0.8 0.9v41.9q0 0.4-0.3 0.7-0.3 0.3-0.8 0.3h-6q-0.5 0-0.8-0.2-0.3-0.1-0.7-0.6l-18.8-26.4q-0.2-0.3-0.5-0.2-0.2 0-0.2 0.3v26q0.1 1.1-1.1 1.1h-6.2q-1.1 0-1.1-1v-41.7q0-1.1 1-1.1h7.2q0.6 0 0.9 0.2 0.3 0.1 0.8 0.7l17.3 24.7q0.4 0.5 0.6 0.4 0.3-0.1 0.3-0.6v-24.4q0-1 1.1-1zm33.2 0h8.5q0.9 0 0.9 1v41.3q0 0.8-0.4 1.2-0.4 0.3-1.2 0.3h-7.4q-0.8 0-1.1-0.3-0.2-0.3-0.2-1v-41.4q0-1.1 0.9-1.1zm81.5 44.3q-5.9 0-10.4-2.7-4.5-2.8-6.9-7.8-2.4-5-2.4-11.8 0-6.9 2.5-12 2.6-5.1 7.1-7.8 4.6-2.8 10.7-2.8 4.8 0 8.6 1.8 3.7 1.8 6 4.7 2.4 2.8 3 6 0.2 0.9 0 1.2-0.1 0.3-0.7 0.4l-7.8 1.2q-0.5 0-0.7-0.3-0.1-0.2-0.2-0.7-0.4-1.9-1.5-3.5-1-1.6-2.8-2.6-1.7-1-4.1-1-2.9 0-5.1 1.6-2 1.5-3.1 4.8-1.1 3.3-1.1 8.7 0 5.7 1.1 9 1.2 3.4 3.3 4.9 2.2 1.5 5.2 1.5 1.9 0 3.3-0.5 1.5-0.6 2.5-1.6 1.1-0.9 1.7-2.1 0.7-1.2 1-2.5l0.1-1.7q0.2-0.9-0.6-0.9h-7.2q-0.4 0-0.7-0.2-0.2-0.2-0.2-0.8v-4.5q0-0.8 0.9-0.8l15.8 0.1q0.9 0 1.3 0.4 0.4 0.3 0.4 1v19.9q0 0.4-0.2 0.6-0.3 0.3-0.7 0.3h-1.9q-0.4 0-0.8-0.2-0.3-0.3-0.7-0.8l-1.7-4.2q-0.1-0.2-0.2-0.2-0.2 0-0.4 0.3-1.1 1.3-2.7 2.6-1.5 1.3-3.9 2.2-2.4 0.8-5.8 0.8zm61.7 0q-6.2 0-10.8-2.6-4.5-2.7-7-7.7-2.4-5.1-2.4-12 0-7 2.5-12 2.5-5.1 7-7.8 4.6-2.8 10.7-2.8 6.2 0 10.6 2.8 4.6 2.7 7.1 7.8 2.4 5 2.4 12 0 6.9-2.4 11.9-2.5 5-7 7.7-4.5 2.7-10.7 2.7zm0-7.2q4.9 0 7.1-3.5 2.2-3.5 2.2-11.5 0-8.1-2.3-11.8-2.2-3.7-7-3.7-4.8 0-7.1 3.7-2.3 3.7-2.3 11.8 0 7.9 2.2 11.5 2.3 3.5 7.2 3.5zm43.7-36q0-1.1 0.9-1.1h8.5q0.9 0 0.9 1v34.4q0 0.8 0.7 0.8h18.8q1 0 1 0.9v5.6q0 0.5-0.3 0.8-0.2 0.3-0.8 0.3h-28.4q-0.8 0-1.1-0.3-0.2-0.3-0.2-1zm53.7 0q0-1.1 1-1.1h29.2q0.9 0 0.9 1v5.3q0 1.2-1.2 1.2h-18.4q-1.1 0-1.1 1v9.1q0 1 0.8 1h12.8q1 0 1 0.9v5.6q0 0.9-0.9 0.9h-12.9q-0.8 0-0.8 0.7v15.7q0 1.4-1.6 1.4h-7.5q-0.7 0-1-0.3-0.3-0.3-0.3-1z"/>
	<path id="TheArena" class="s0" aria-label="TheArena"  d="m48.1 150.1v-14.1q0-1.4 0.6-2.2 0.8-0.8 2.7-0.8h145.7q1.7 0 2.5 0.8 0.8 0.8 0.8 2.2v14.1q0 2.7-3.3 2.7h-54.9q-3 0-3 2.7v175q0 3.5-3.3 3.5h-19.5q-3.2 0-3.2-3.5v-174.8q0-2.9-2.7-2.9h-59.1q-3.3 0-3.3-2.7zm188.1 183.9q-3.6 0-3.6-3.5v-194q0-3.5 3-3.5h16q3 0 3 3.2v72.4q0 1.3 0.5 1.6 0.6 0.3 1.9-0.8 9.5-7.3 17.4-12.2 8.1-4.9 15.7-7 7.8-2.5 17-2.5 21.2 0 32.3 11.4 11.1 11.1 11.1 29.8v100.8q0 4.3-4.1 4.3h-15.2q-1.9 0-2.7-0.8-0.8-1.1-0.8-2.7v-96.7q0-13.3-6.8-20.6-6.7-7.6-21.4-7.6-7.8 0-14.9 2.7-6.7 2.4-13.8 7.3-7 4.6-15.4 11.9v102.4q0 4.1-4.3 4.1zm169.5-62.8q0 13.2 6.3 24.3 6.5 10.9 17 17.4 10.9 6.5 24.1 6.5 13.6 0 24.2-5.4 10.5-5.7 18.1-17.1 1.1-1.1 1.6-1.1 0.8-0.3 2.2 0.3l11.4 5.7q2.4 1.3 0.5 3.8-7.3 10.8-16.2 17.8-8.7 6.8-19.5 10.1-10.9 3.2-24.4 3.2-20.1 0-35.5-9.2-15.5-9.2-24.4-25.7-8.9-16.6-8.9-38.2 0-23.6 8.9-40.4 9.2-17.1 24.7-26.3 15.7-9.2 34.9-9.2 19.8 0 34.4 8.7 14.6 8.7 22.8 25.2 8.1 16.5 8.1 39.8 0 1.9-0.5 3.8-0.3 1.9-3.6 1.9h-103.7q-1.1 0-1.9 1.3-0.6 1.1-0.6 2.8zm0.6-19h82.3q3 0 3.8-0.6 0.8-0.8 0.8-3.2 0-11.7-5.1-21.7-4.9-10.3-14.4-16.5-9.2-6.2-22.5-6.2-14.6 0-24.6 7-10 6.8-15.2 17.9-5.1 11.1-5.1 23.3zm119.1 81.8q-4.6 0-5-4.2 0-4.2 4.6-13.4l141.7-285.1q2.5-5 6.3-6.2 4.2-1.3 9.6-1.3h82.4q5.4 0 7.5 4.2 2.1 4.2 2.9 9.2l60.6 284.7q0.9 4.2-0.4 8.3-1.2 3.8-5.8 3.8h-82q-5.8 0-7.9-9.2l-9.6-47.2q-0.5-3.8-5.5-3.8h-87.8q-5 0-7.9 5.4l-25.1 50.6q-1.2 2.5-2.9 3.4-1.7 0.8-6.3 0.8zm140.5-131.3h47.6q7.1 0 5.1-8.3l-15.1-69.8q-0.4-4.2-2.5-4.2-2.1 0-4.2 3.7l-34.7 71.9q-1.7 4.2-0.8 5.5 0.8 1.2 4.6 1.2zm209.4 131.3q-6.3 0-8.8-3.8-2.5-3.7-2.1-9.2l28.5-201.5q0.8-4.5 2.1-5.8 1.2-1.3 5-1.3h66.4q3.4 0 5.5 2.6 2.1 2.5 1.2 8.3l-2.5 15.1q-0.4 5 1.3 5.4 1.7 0.4 4.6-2.5 8.3-9.2 19.6-16.7 11.3-7.6 23-11.7 11.7-4.6 20.5-4.6 8.4 0 13.4 1.2 5 1.3 4.2 5.9l-8.4 61q-0.8 6.3-2.5 7.9-1.3 1.3-4.2 0.9-10.9-1.7-20.9-2.1-9.6-0.8-14.2-0.8-7.5 0-15.1 2.9-7.5 2.5-13.7 7.1-6.3 4.6-10.5 10-3.8 5.5-4.6 10.9l-15.5 111.2q-0.8 6.7-3.7 8.3-2.5 1.3-9.6 1.3zm280.9 4.2q-31.4 0-55.2-12.6-23.8-12.5-37.6-34.7-13.4-22.1-13.4-51.4 0-25.9 10-49.3 10.1-23.4 27.6-41.8 18-18.8 41.4-29.3 23.8-10.8 51.4-10.8 30.1 0 52.7 12.1 23 12.1 35.5 34.7 13 22.6 13 54.3 0 5.5-0.4 11.3-0.5 5.9-1.3 11.7-0.4 3.8-2.5 5-2.1 0.9-7.5 0.9h-129.2q-5 0-6.3 6.2-1.2 6.3-1.2 11.3 0 14.2 10 20.9 10 6.3 25.5 6.3 12.1 0 23.4-5 11.3-5 24.3-17.6 2.5-2.5 5-2.1 2.9 0 6.7 1.7l35.5 15.5q10.9 4.6 3.4 13.4-18.4 20-35.2 30.9-16.7 10.4-35.1 14.6-18 3.8-40.5 3.8zm-13.8-140.9h52.7q4.1 0 7.1-3.3 3.3-3.8 3.3-11.3 0-8.4-5.4-16.7-5-8.8-18.4-8.8-8.4 0-17.2 4.6-8.3 4.6-14.6 13.8-5.8 8.7-7.5 21.7zm157.2 136.7q-5.5 0-6.7-3.8-0.9-3.7-0.4-9.2l28.4-201.5q0.8-4.5 2.1-5.8 1.2-1.3 5-1.3h71.5q2.5 0 3.7 1.3 1.3 0.8 0.4 5l-2.9 18.8q-0.4 5.5 5 0.4 14.7-12.9 32.2-21.3 18-8.3 36-8.3 27.2 0 43.5 16.3 16.3 15.9 16.3 41.8 0 2.9-0.5 5.8 0 2.9-0.4 6.3l-20.5 145.5q-0.8 6.2-3.7 8.3-2.5 1.7-9.2 1.7h-64q-5.4 0-6.3-3.3-0.8-3.8 0-9.7l18.9-133.7q0.4-2.1 0.4-3.8 0.4-1.7 0.4-2.5 0-7.1-4.6-10.5-4.2-3.3-12.1-3.3-7.1 0-13.8 2.9-6.7 2.5-12.6 8-5.4 5-10.4 12.1l-19.7 134.2q-0.8 6.7-3.7 8.3-2.9 1.3-10.5 1.3zm365.8-16.7q-10.4 11.3-27.2 16.3-16.7 4.6-35.1 4.6-29.2 0-45.5-15.9-16.4-15.9-16.4-39.7 0-24.7 13-41.4 13.4-16.7 34.3-26.8 20.9-10.4 45.1-14.6 24.3-4.6 46-4.6h2.9q8 0 9.2-8.3l1.3-7.2q0.4-1.6 0.4-2.9 0-1.7 0-2.9 0-8.4-4.6-12.1-4.6-3.8-14.2-3.8-10 0-20.9 3.8-10.5 3.3-17.1 16.7-1.3 2.5-3.4 3.3-2.1 0.9-7.5 0l-53.1-10.8q-3.3-0.9-5.4-4.2-1.7-3.8 2.1-13.4 13.3-24.7 41.3-34.7 28.5-10.4 68.2-10.4 35.5 0 56 7.5 20.9 7.5 29.7 20.9 8.8 13.4 8.8 30.9 0 2.9-0.5 5.9 0 2.9-0.4 6.2l-20.5 145.5q-0.8 6.3-2.1 7.5-1.2 1.3-7.1 1.3h-57.2q-5.5 0-6.7-3.8-1.3-3.7-2.1-9.6l-0.4-5q-0.9-9.2-10.9 1.7zm16.3-57.3l2.9-22.1q0.9-3.8 0.5-4.6-0.5-0.9-4.2-0.5l-5.9 0.5q-6.3 0.4-15 2.5-8.8 2.1-17.2 6.2-8.3 4.2-13.8 10.9-5.4 6.7-5.4 16.3 0 6.7 4.6 11.7 4.6 4.6 13.8 4.6 9.6 0 16.7-2.5 7.1-2.5 11.3-5.9 4.2-3.3 7.5-7.9 3.8-4.6 4.2-9.2z"/>
</svg>