<svg width="364px" height="175px" viewBox="0 0 364 175" version="1.1" xmlns="http://www.w3.org/2000/svg" xmlns:xlink="http://www.w3.org/1999/xlink" class="relative lg:-mr-96 flip-x hidden lg:block"><defs><polygon id="path-1" points="0 0.987115478 2.8503712 0.987115478 2.8503712 7.90455038 0 7.90455038"></polygon> <polygon id="path-3" points="0.493922859 0.4094 2.775 0.4094 2.775 8.50008513 0.493922859 8.50008513"></polygon></defs> <g id="Homepage" stroke="none" stroke-width="1" fill="none" fill-rule="evenodd"><g id="Homepage-Copy-2" transform="translate(-280.000000, -2228.000000)"><g id="###-CONTENT-TOOLS" transform="translate(4.000000, 2228.000000)"><g id="dashed-line" transform="translate(276.000000, 0.000000)"><path d="M4.8279,22.2558 C4.2039,20.9058 3.7289,19.7578 3.3049,18.5808 C2.9239,17.4818 2.6399,16.3438 2.4589,15.1998 C2.4229,14.9708 3.0449,14.4548 3.4019,14.4188 C3.7649,14.3828 4.4709,14.7118 4.5219,14.9748 C4.8969,16.9708 5.2009,18.9748 5.5659,20.9718 C5.6399,21.3178 5.7899,21.6628 5.7729,22.0028 C5.7659,22.1518 5.4479,22.3628 5.2419,22.4038 C5.0679,22.4398 4.8529,22.2658 4.8279,22.2558" id="Fill-1" fill="#eee"></path> <path d="M6.9841,27.4785 C7.7551,27.4935 7.9221,28.0725 8.1331,28.5415 C8.5751,29.5465 8.8441,30.6315 9.2251,31.6675 C9.4801,32.3775 9.5221,33.1945 9.9111,33.8325 C10.2011,34.3075 10.1191,34.6595 9.6341,35.1005 C9.5741,35.1555 9.3501,35.1485 9.3101,35.0925 C9.0441,34.7155 8.7891,34.3385 8.5621,33.9535 C8.3571,33.5555 8.1531,33.1625 7.9501,32.7695 C7.5641,31.9725 7.1141,31.1975 6.6931,30.3745 C6.5171,30.0505 6.2951,29.7505 6.0911,29.4375 C5.6821,28.8045 6.0141,27.8025 6.9841,27.4785" id="Fill-3" fill="#eee"></path> <g id="Group-7" transform="translate(0.000000, 0.155000)"><mask id="mask-2" fill="white"><use xlink:href="#path-1"></use></mask> <g id="Clip-6"></g> <path d="M1.7038,7.6711 C1.3608,6.6611 0.9408,4.9421 0.6948,4.2321 C0.4538,3.5401 0.1268,2.8651 0.0078,2.1541 C-0.0512,1.8041 0.2238,1.3501 0.4568,1.0201 C0.5288,0.9191 0.9688,1.0781 1.2388,1.1231 C2.3808,1.3151 2.1738,2.2861 2.3338,3.0541 C2.5128,3.8711 2.5638,6.1121 2.7628,6.9191 C2.9938,7.8651 2.7938,8.0241 1.8498,7.8341 C1.7168,7.8071 1.6238,7.5721 1.7038,7.6711" id="Fill-5" fill="#eee" mask="url(#mask-2)"></path></g> <path d="M27.3933,55.1152 C26.0383,54.5262 24.8043,54.1352 23.7533,53.4342 C22.7623,52.8052 21.7083,52.1812 20.9143,51.3172 C20.7473,51.1502 20.9313,50.3572 21.1953,50.1152 C21.4653,49.8672 22.2163,49.7062 22.4103,49.8852 C23.1213,50.6002 23.9293,51.1652 24.6733,51.8322 C25.0563,52.1512 25.4253,52.4912 25.8173,52.8002 L27.0403,53.6642 C27.3273,53.8652 27.6683,54.0112 27.8873,54.2702 C27.9843,54.3852 27.9043,54.7612 27.7883,54.9362 C27.6893,55.0832 27.4173,55.1052 27.3933,55.1152" id="Fill-8" fill="#eee"></path> <path d="M32.6726,57.1113 C33.1946,56.5483 33.7316,56.8123 34.2166,56.9713 C35.2366,57.3453 36.2676,57.7513 37.2836,58.1833 C37.9796,58.4763 38.6336,58.9513 39.3756,59.0593 C39.9256,59.1533 40.1386,59.4463 40.1576197,60.1023 C40.1596,60.1843 40.0086,60.3493 39.9416,60.3423 C38.0856,60.2133 36.4916,59.5783 34.6466,59.2753 C34.2766,59.2163 33.9106,59.1583 33.5426,59.1003 C32.7966,58.9753 32.2666,58.0503 32.6726,57.1113" id="Fill-10" fill="#eee"></path> <path d="M16.0769,45.5971 C15.2989,44.8651 14.0579,43.5591 13.5329,43.0051 C13.0269,42.4631 12.4439,41.9611 12.0379,41.3431 C11.8369,41.0371 11.9039,40.5111 11.9919,40.1241 C12.0179,40.0051 12.4949,39.9901 12.7649,39.9291 C13.9059,39.6711 14.0839,40.6041 14.5319,41.2311 C14.9549,41.9211 16.0799,43.8001 16.6289,44.4091 C17.2719,45.1131 17.1809,45.3571 16.2829,45.6681 C16.1549,45.7121 15.9609,45.5491 16.0769,45.5971" id="Fill-12" fill="#eee"></path> <path d="M67.0202,62.5537 C65.5682,62.8307 64.3512,63.1357 63.1132,63.2667 C61.9592,63.3907 60.7872,63.4967 59.6272,63.4007 C59.3952,63.3837 59.0202,62.6647 59.0602,62.3097 C59.1012,61.9457 59.5702,61.3297 59.8352,61.3377 C61.8612,61.3657 63.8882,61.5157 65.9222,61.5437 C66.2772,61.5517 66.6502,61.4837 66.9782,61.5757 C67.1242,61.6167 67.2602,61.9747 67.2552,62.1847 C67.2512,62.3617 67.0352,62.5327 67.0202,62.5537" id="Fill-14" fill="#eee"></path> <path d="M72.6111,61.6855 C72.8291,60.9515 73.4431,60.9545 73.9611,60.8845 C75.0641,60.7385 76.1991,60.7835 77.3221,60.7835 C78.0901,60.7845 78.8791,60.9825 79.6231,60.8655 C80.1791,60.7765 80.4801,60.9845 80.7071,61.5995 C80.7361,61.6765 80.6451,61.8805 80.5791,61.8965 C78.7891,62.3285 77.0991,62.3825 75.3041,62.7845 C74.9471,62.8615 74.5991,62.9905 74.2481,63.0955 C73.5381,63.3085 72.6731,62.7065 72.6111,61.6855" id="Fill-16" fill="#eee"></path> <path d="M52.2439,62.4531 C51.1769,62.4981 49.3899,62.4591 48.6309,62.4601 C47.8909,62.4631 47.1339,62.5511 46.4099,62.4301 C46.0529,62.3701 45.7129,61.9631 45.4839,61.6351 C45.4139,61.5351 45.7219,61.1731 45.8569,60.9331 C46.4339,59.9191 47.2539,60.4261 48.0219,60.5231 C48.8259,60.6601 50.9719,61.1971 51.7969,61.2281 C52.7579,61.2631 52.8629,61.4991 52.4389,62.3561 C52.3789,62.4771 52.1269,62.5031 52.2439,62.4531" id="Fill-18" fill="#eee"></path> <path d="M107.615,59.0185 C106.192,59.4165 105.011,59.7995 103.803,60.0775 C102.678,60.3345 101.529,60.5325 100.38,60.6085 C100.15,60.6225 99.686,59.9625 99.678,59.6045 C99.669,59.2375 100.054,58.5635 100.323,58.5345 C102.353,58.3185 104.396,58.2225 106.439,58.1015 C106.795,58.0805 107.163,57.9815 107.5,58.0465 C107.648,58.0765 107.812,58.4215 107.822,58.6315 C107.831,58.8085 107.629,58.9965 107.615,59.0185" id="Fill-20" fill="#eee"></path> <path d="M113.1491,57.8242 C113.3371,57.0832 113.9571,57.0652 114.4741,56.9772 C115.5801,56.7852 116.7241,56.8082 117.8531,56.8002 C118.6281,56.7952 119.4181,56.9682 120.1671,56.8612 C120.7261,56.7792 121.0301,56.9912 121.2511,57.6082 C121.2781,57.6862 121.1861,57.8892 121.1201,57.9042 C119.3341,58.2962 117.6511,58.4082 115.8731,58.8322 C115.5191,58.9212 115.1771,59.0612 114.8321,59.1782 C114.1351,59.4142 113.2531,58.8422 113.1491,57.8242" id="Fill-22" fill="#eee"></path> <path d="M92.9802,60.833 C91.9472,61.1 90.2002,61.399 89.4662,61.578 C88.7532,61.757 88.0462,62.022 87.3242,62.077 C86.9662,62.105 86.5392,61.789 86.2352,61.522 C86.1412,61.44 86.3452,61.02 86.4182,60.755 C86.7222,59.639 87.6592,59.93 88.4342,59.841 C89.2552,59.75 91.4892,59.864 92.3062,59.722 C93.2642,59.561 93.4092,59.771 93.1542,60.698 C93.1182,60.83 92.8762,60.905 92.9802,60.833" id="Fill-24" fill="#eee"></path> <path d="M148.1862,58.4482 C146.7182,58.5092 145.4892,58.5602 144.2522,58.6112 C143.1062,58.6442 141.9572,58.5642 140.8232,58.4622 C140.5982,58.4382 140.2592,57.7082 140.3122,57.3532 C140.3672,56.9902 140.8692,56.3932 141.1422,56.4112 C142.1712,56.4612 143.1922,56.6352 144.2132,56.7682 C145.2352,56.9002 146.2492,57.0862 147.2622,57.2782 C147.6152,57.3422 147.9992,57.3342 148.3122,57.4772 C148.4512,57.5412 148.5242,57.9162 148.4822,58.1222 C148.4472,58.2952 148.2052,58.4292 148.1862,58.4482" id="Fill-26" fill="#eee"></path> <path d="M153.8396,58.7832 C154.2356,58.1312 154.8396,58.3002 155.3646,58.3722 C156.4896,58.5082 157.5776,58.9072 158.6546,59.2742 C159.3926,59.5322 160.0896,59.9322 160.8286,60.1082 C161.3846,60.2312 161.5966,60.5382 161.5856,61.1942 C161.5836,61.2762 161.4256,61.4332 161.3596,61.4252 C160.4586,61.2862 159.6076,61.1022 158.7456,60.9552 C157.8886,60.7992 157.0346,60.6262 156.1306,60.5552 C155.7676,60.5352 155.4016,60.5672 155.0386,60.5772 C154.3116,60.5962 153.6466,59.7882 153.8396,58.7832" id="Fill-28" fill="#eee"></path> <path d="M133.5212,57.6025 C132.4672,57.7635 130.7082,57.8505 129.9692,57.9945 C129.2492,58.1185 128.5312,58.3295 127.8122,58.3295 C127.4582,58.3295 127.0532,57.9825 126.7662,57.7065 C126.6772,57.6205 126.9042,57.2075 126.9932,56.9475 C127.3652,55.8495 128.2942,56.2155 129.0792,56.1835 C129.9152,56.1335 132.1432,56.4665 132.9742,56.4255 C133.9522,56.3685 134.0692,56.5925 133.7082,57.4865 C133.6572,57.6135 133.4102,57.6635 133.5212,57.6025" id="Fill-30" fill="#eee"></path> <path d="M185.0564,74.04 C183.7724,73.304 182.7454,72.663 181.6604,72.087 C180.6594,71.54 179.7444,70.859 178.8064,70.229 C178.6244,70.1 178.6914,69.3 178.9104,69.018 C179.1364,68.728 179.8724,68.456 180.1054,68.606 C180.9844,69.159 181.7674,69.855 182.5844,70.494 C183.4084,71.126 184.1574,71.851 184.9134,72.56 C185.1784,72.806 185.5084,73.008 185.6954,73.299 C185.7784,73.428 185.6344,73.779 185.4864,73.928 C185.3604,74.053 185.0814,74.034 185.0564,74.04" id="Fill-32" fill="#eee"></path> <path d="M189.4978,77.5517 C190.2038,77.2617 190.5958,77.7617 190.9778,78.1347 C191.8158,78.9177 192.4398,79.9147 193.0608,80.8867 C193.4788,81.5607 193.7288,82.3447 194.1878,82.9647 C194.5378,83.4257 194.4838,83.8067 194.0358,84.2767 C193.9788,84.3357 193.7558,84.3467 193.7128,84.2957 C192.5528,82.9087 191.6148,81.5357 190.2708,80.3277 C190.0098,80.0847 189.6838,79.9057 189.3918,79.6967 C188.7988,79.2857 188.7498,78.2497 189.4978,77.5517" id="Fill-34" fill="#eee"></path> <path d="M172.8093,66.0585 C171.7903,65.7505 170.1913,65.0425 169.4523,64.8905 C168.7473,64.7095 168.0113,64.6115 167.3623,64.3195 C167.0423,64.1745 166.8153,63.6905 166.6583,63.3305 C166.6093,63.2185 166.9813,62.9255 167.1653,62.7195 C167.9433,61.8595 168.6553,62.5845 169.3893,62.8775 C169.7773,63.0405 170.4643,63.3975 171.1293,63.7935 C171.7903,64.2015 172.4493,64.6035 172.8363,64.7645 C173.7473,65.1425 173.7513,65.3935 173.0283,66.0375 C172.9253,66.1275 172.6823,66.0645 172.8093,66.0585" id="Fill-36" fill="#eee"></path> <path d="M190.2761,108.5761 C190.4971,108.2881 190.7081,108.0111 190.9131,107.7431 C191.1081,107.4701 191.2651,107.1791 191.4351,106.9131 C191.7671,106.3741 192.1001,105.8851 192.3741,105.3501 C192.9571,104.4081 193.4471,103.4201 194.0411,102.5001 C194.1401,102.3111 194.9321,102.2871 195.2421,102.4691 C195.5531,102.6511 195.9271,103.3741 195.7811,103.6221 C194.7431,105.5071 193.3261,107.1381 191.7911,108.5931 C191.5081,108.8301 191.2601,109.1381 190.9421,109.2931 C190.8001,109.3621 190.4661,109.1781 190.3371,109.0131 C190.2281,108.8731 190.2791,108.6011 190.2761,108.5761" id="Fill-38" fill="#eee"></path> <path d="M185.9724,112.249 C186.0464,113.006 185.4304,113.256 184.9404,113.513 C184.3934,113.74 183.8204,113.921 183.2434,114.08 C182.6664,114.243 182.0524,114.267 181.4664,114.36 C180.6604,114.515 179.8164,114.242 179.0404,114.385 C178.4524,114.497 178.1474,114.185 177.9884,113.564 C177.9684,113.484 178.0774,113.293 178.1444,113.286 C178.5884,113.263 179.0184,113.157 179.4434,113.087 C179.8664,113.008 180.2864,112.969 180.6994,112.88 C181.5094,112.624 182.3464,112.495 183.1114,112.039 C183.4194,111.877 183.7014,111.67 183.9884,111.487 C184.5404,111.091 185.5004,111.329 185.9724,112.249" id="Fill-40" fill="#eee"></path> <path d="M196.6218,95.9169 C196.6328,95.3989 196.5548,94.7139 196.4818,94.0729 C196.4428,93.7539 196.4328,93.4429 196.3738,93.1729 C196.3048,92.9059 196.2428,92.6729 196.1968,92.4989 C196.0068,91.8259 195.7258,91.1909 195.5598,90.5269 C195.4798,90.2009 195.7268,89.7429 195.9178,89.3969 C195.9778,89.2899 196.4338,89.3979 196.7098,89.4199 C197.8648,89.5159 197.7708,90.5609 197.8918,91.3719 C197.9448,91.8099 198.0178,92.6229 197.9818,93.4249 C197.9058,94.2299 197.8638,95.0209 197.8548,95.4529 C197.8038,96.4719 197.5668,96.5559 196.7168,96.1089 C196.5968,96.0479 196.5738,95.8039 196.6218,95.9169" id="Fill-42" fill="#eee"></path> <path d="M160.1677,96.3886 C160.2747,96.7336 160.3787,97.0646 160.4797,97.3856 C160.5897,97.7006 160.7437,97.9936 160.8657,98.2826 C161.1217,98.8596 161.3397,99.4046 161.6327,99.9266 C162.0897,100.9296 162.6467,101.8796 163.0917,102.8786 C163.1947,103.0656 162.7787,103.7426 162.4587,103.9016 C162.1327,104.0626 161.3297,103.9756 161.1947,103.7206 C160.1937,101.8166 159.5997,99.7256 159.2797,97.6206 C159.2487,97.2496 159.1407,96.8666 159.1967,96.5146 C159.2227,96.3586 159.5657,96.1936 159.7757,96.1846 C159.9527,96.1766 160.1457,96.3756 160.1677,96.3886" id="Fill-44" fill="#eee"></path> <path d="M159.8327,90.749 C159.1907,90.337 159.3857,89.703 159.4787,89.159 C159.7927,88.023 160.2707,86.908 160.9097,85.912 C161.1187,85.565 161.3467,85.228 161.6037,84.916 C161.8677,84.609 162.1167,84.301 162.2997,83.955 C162.5767,83.438 162.9157,83.306 163.5477,83.539 C163.6257,83.567 163.7227,83.764 163.6897,83.822 C162.9577,85.468 162.0677,86.87 161.7657,88.622 C161.6997,88.965 161.6867,89.315 161.6497,89.655 C161.6467,90.347 160.8397,90.947 159.8327,90.749" id="Fill-46" fill="#eee"></path> <path d="M167.1218,108.7304 C167.5428,109.0354 168.1408,109.3864 168.7028,109.7094 C168.9838,109.8724 169.2478,110.0414 169.4948,110.1674 C169.7508,110.2764 169.9748,110.3724 170.1408,110.4434 L171.1328,110.7974 C171.4618,110.9104 171.8018,110.9864 172.1058,111.1374 C172.4078,111.2794 172.6128,111.7574 172.7598,112.1414 C172.8058,112.2594 172.4448,112.5384 172.2598,112.7374 C171.4818,113.5614 170.6978,112.8594 169.9888,112.4684 C169.6128,112.2464 168.9348,111.8084 168.3248,111.2964 C167.7288,110.7604 167.1218,110.2604 166.7808,110.0004 C165.9858,109.3744 166.0528,109.1314 166.9088,108.6964 C167.0288,108.6334 167.2428,108.7564 167.1218,108.7304" id="Fill-48" fill="#eee"></path> <path d="M186.3952,70.2753 C185.0482,70.8793 183.9572,71.4393 182.8492,71.9533 C181.8052,72.4013 180.7682,72.8833 179.6912,73.2223 C179.4802,73.2973 178.8632,72.7853 178.7562,72.4433 C178.6472,72.0933 178.8462,71.3343 179.1032,71.2303 C181.0582,70.5173 183.0662,69.9633 185.0952,69.5453 C185.4472,69.4683 185.7992,69.3023 186.1452,69.3293 C186.2982,69.3383 186.5082,69.6593 186.5462,69.8663 C186.5802,70.0403 186.4052,70.2513 186.3952,70.2753" id="Fill-50" fill="#eee"></path> <path d="M191.7546,68.4487 C191.8716,67.6937 192.4906,67.6097 193.0016,67.4767 C194.0966,67.2067 195.2426,67.1147 196.3746,67.0327 C197.1486,66.9697 197.9516,67.0977 198.6936,66.9437 C199.2486,66.8237 199.5656,67.0147 199.8216,67.6167 C199.8546,67.6927 199.7756,67.9017 199.7096,67.9207 C197.9546,68.4377 196.2816,68.6287 194.5546,69.2147 C194.2096,69.3307 193.8826,69.4957 193.5496,69.6387 C192.8826,69.9297 191.9596,69.4537 191.7546,68.4487" id="Fill-52" fill="#eee"></path> <path d="M172.9021,75.8447 C172.0661,76.4887 170.6971,77.5607 170.1671,78.0697 C169.6571,78.5757 169.2381,79.1797 168.6751,79.5937 C168.3941,79.7937 167.9001,79.8007 167.4971,79.7637 C167.3751,79.7537 167.2831,79.2937 167.1861,79.0337 C166.7601,77.9177 167.7731,77.6317 168.3901,77.1237 C168.7131,76.8387 169.4041,76.4567 170.0931,76.0847 C170.7711,75.6937 171.4711,75.3557 171.8231,75.1217 C172.6431,74.5597 172.8551,74.6947 173.0021,75.6497 C173.0231,75.7847 172.8391,75.9537 172.9021,75.8447" id="Fill-54" fill="#eee"></path> <path d="M226.7946,66.2861 C225.3416,66.5561 224.1306,66.8311 222.9036,67.0001 C221.7606,67.1531 220.6016,67.2581 219.4526,67.2331 C219.2246,67.2301 218.8156,66.5341 218.8356,66.1771 C218.8576,65.8101 219.2976,65.1691 219.5676,65.1621 C221.6136,65.1181 223.6606,65.2041 225.7046,65.2671 C226.0606,65.2771 226.4366,65.2121 226.7656,65.3081 C226.9106,65.3501 227.0426,65.7091 227.0346,65.9191 C227.0276,66.0961 226.8106,66.2651 226.7946,66.2861" id="Fill-56" fill="#eee"></path> <path d="M232.4099,65.5752 C232.6599,64.8512 233.2769,64.8802 233.7989,64.8382 C234.9139,64.7452 236.0509,64.8522 237.1739,64.9222 C237.9429,64.9672 238.7189,65.2152 239.4709,65.1512 C240.0339,65.1042 240.3219,65.3342 240.5029,65.9642 C240.5249,66.0432 240.4209,66.2402 240.3529,66.2512 C238.5429,66.5402 236.8539,66.5042 235.0449,66.8042 C234.6839,66.8622 234.3329,66.9732 233.9769,67.0612 C233.2629,67.2352 232.4299,66.5982 232.4099,65.5752" id="Fill-58" fill="#eee"></path> <path d="M212.0769,66.9394 C211.0329,67.1534 209.2809,67.3684 208.5489,67.5364 C207.8349,67.6904 207.1279,67.9404 206.4109,67.9854 C206.0559,68.0064 205.6359,67.6864 205.3339,67.4184 C205.2409,67.3354 205.4469,66.9164 205.5209,66.6514 C205.8359,65.5374 206.7809,65.8424 207.5629,65.7704 C208.3949,65.6934 210.6349,65.8874 211.4609,65.7964 C212.4299,65.6804 212.5619,65.9034 212.2569,66.8134 C212.2139,66.9424 211.9699,67.0054 212.0769,66.9394" id="Fill-60" fill="#eee"></path> <path d="M267.5202,66.5888 C266.0562,66.7858 264.8322,66.9978 263.5982,67.1078 C262.4492,67.2078 261.2852,67.2448 260.1372,67.1618 C259.9092,67.1468 259.5382,66.4288 259.5782,66.0728 C259.6192,65.7088 260.0932,65.0918 260.3632,65.0998 C262.4062,65.1678 264.4452,65.3498 266.4832,65.5168 C266.8382,65.5448 267.2162,65.4988 267.5412,65.6108 C267.6832,65.6598 267.7972,66.0258 267.7792,66.2348 C267.7632,66.4108 267.5372,66.5678 267.5202,66.5888" id="Fill-62" fill="#eee"></path> <path d="M273.1648,66.1601 C273.4508,65.4491 274.0648,65.5111 274.5888,65.4941 C275.7068,65.4571 276.8358,65.6211 277.9548,65.7461 C278.7218,65.8321 279.4828,66.1181 280.2378,66.0921 C280.8028,66.0721 281.0778,66.3161 281.2278,66.9541 C281.2458,67.0351 281.1318,67.2261 281.0638,67.2341 C279.2408,67.4321 277.5568,67.3101 275.7338,67.5191 C275.3708,67.5601 275.0148,67.6541 274.6548,67.7231 C273.9328,67.8621 273.1328,67.1821 273.1648,66.1601" id="Fill-64" fill="#eee"></path> <path d="M252.781,66.4277 C251.724,66.5637 249.957,66.6557 249.212,66.7587 C248.485,66.8587 247.757,67.0457 247.035,67.0217 C246.677,67.0097 246.287,66.6557 246.01,66.3617 C245.926,66.2717 246.171,65.8707 246.269,65.6147 C246.685,64.5287 247.592,64.9247 248.375,64.9197 C249.206,64.9157 251.417,65.2757 252.246,65.2427 C253.218,65.1997 253.336,65.4267 252.969,66.3157 C252.918,66.4417 252.67,66.4867 252.781,66.4277" id="Fill-66" fill="#eee"></path> <path d="M308.153,69.1259 C306.677,69.2029 305.443,69.3269 304.212,69.3309 C303.06,69.3509 301.9,69.3199 300.764,69.1609 C300.539,69.1299 300.213,68.3889 300.273,68.0359 C300.335,67.6749 300.845,67.0919 301.116,67.1179 C303.158,67.3009 305.185,67.6409 307.211,67.9749 C307.563,68.0319 307.946,68.0119 308.26,68.1529 C308.399,68.2179 308.479,68.5929 308.442,68.7999 C308.41,68.9739 308.172,69.1069 308.153,69.1259" id="Fill-68" fill="#eee"></path> <path d="M313.8122,69.3027 C314.1822,68.6327 314.7912,68.7707 315.3162,68.8167 C316.4432,68.8977 317.5412,69.2727 318.6372,69.5557 C319.3882,69.7577 320.1012,70.1437 320.8492,70.2707 C321.4122,70.3577 321.6412,70.6497 321.6692,71.3037 C321.6732,71.3857 321.5262,71.5537 321.4582,71.5487 C319.6452,71.3827 317.9972,71.0507 316.1802,70.9727 C315.8202,70.9537 315.4542,71.0057 315.0902,71.0327 C314.3612,71.0877 313.6582,70.3137 313.8122,69.3027" id="Fill-70" fill="#eee"></path> <path d="M293.4675,68.0341 C292.4055,68.1171 290.6355,68.1181 289.8855,68.1851 C289.1555,68.2491 288.4175,68.3991 287.6975,68.3401 C287.3425,68.3091 286.9695,67.9341 286.7085,67.6281 C286.6285,67.5341 286.8925,67.1461 287.0035,66.8941 C287.4745,65.8311 288.3605,66.2741 289.1425,66.3061 C289.9725,66.3441 292.1625,66.8151 292.9915,66.8241 C293.9655,66.8291 294.0715,67.0611 293.6605,67.9311 C293.6035,68.0551 293.3535,68.0881 293.4675,68.0341" id="Fill-72" fill="#eee"></path> <path d="M345.8532,82.6582 C345.2142,82.3042 344.6282,81.9772 344.0662,81.6652 C343.4912,81.3812 342.9262,81.1352 342.3902,80.8482 C341.8892,80.5852 341.3942,80.3072 340.9132,80.0112 C340.4302,79.7172 339.9192,79.4652 339.4512,79.1532 C339.2632,79.0332 339.2842,78.2272 339.4862,77.9322 C339.6942,77.6302 340.4112,77.3192 340.6512,77.4592 C341.0972,77.7272 341.5572,77.9722 341.9802,78.2782 L343.2382,79.2102 C344.0702,79.8402 344.9132,80.4462 345.6672,81.1692 C345.9392,81.4112 346.2732,81.6072 346.4662,81.8962 C346.5522,82.0242 346.4192,82.3822 346.2762,82.5352 C346.1552,82.6642 345.8782,82.6522 345.8532,82.6582" id="Fill-74" fill="#eee"></path> <path d="M350.3933,86.0493 C351.0913,85.7593 351.4763,86.2713 351.8533,86.6533 C352.6553,87.4763 353.3503,88.4003 353.9253,89.4823 C354.3623,90.1853 354.4583,91.0333 354.9033,91.6803 C355.1953,92.1823 355.0953,92.5553 354.5973,92.9773 C354.5343,93.0303 354.3123,93.0153 354.2753,92.9603 C353.8083,92.1843 353.2973,91.4923 352.8563,90.7653 C352.3253,90.1023 351.8563,89.4273 351.1313,88.8553 C350.8593,88.6213 350.5523,88.4273 350.2633,88.2183 C349.6863,87.8023 349.6523,86.7543 350.3933,86.0493" id="Fill-76" fill="#eee"></path> <path d="M333.2029,75.3881 C332.1709,75.1391 330.5199,74.5621 329.7729,74.4611 C329.0569,74.3301 328.3159,74.2821 327.6479,74.0361 C327.3189,73.9121 327.0569,73.4491 326.8749,73.1001 C326.8189,72.9911 327.1699,72.6741 327.3399,72.4551 C328.0559,71.5391 328.8149,72.2161 329.5679,72.4561 C329.9679,72.5871 330.6719,72.9111 331.3709,73.2371 C332.0579,73.6001 332.7429,73.9581 333.1409,74.0931 C334.0739,74.4091 334.0959,74.6611 333.4199,75.3511 C333.3239,75.4491 333.0779,75.4021 333.2029,75.3881" id="Fill-78" fill="#eee"></path> <path d="M360.1618,119.2998 C359.7488,117.8818 359.3508,116.7068 359.0558,115.5088 C358.7658,114.3958 358.5528,113.2558 358.4298,112.1188 C358.4048,111.8928 359.0458,111.4038 359.4028,111.3798 C359.7688,111.3558 360.4598,111.7168 360.5008,111.9858 C360.7888,114.0198 360.9248,116.0708 361.0668,118.1158 C361.0918,118.4718 361.2008,118.8398 361.1328,119.1778 C361.1028,119.3268 360.7578,119.4928 360.5488,119.5048 C360.3718,119.5138 360.1838,119.3128 360.1618,119.2998" id="Fill-80" fill="#eee"></path> <path d="M361.3571,124.833 C362.0981,125.023 362.1231,125.643 362.2031,126.161 C362.3781,127.269 362.3631,128.411 362.3721,129.54 C362.3751,130.312 362.1851,131.103 362.3021,131.851 C362.3881,132.409 362.1811,132.712 361.5621,132.935 C361.4851,132.962 361.2821,132.871 361.2671,132.805 C360.8451,131.02 360.7781,129.332 360.3371,127.554 C360.2521,127.199 360.1151,126.857 360.0001,126.511 C359.7741,125.813 360.3371,124.936 361.3571,124.833" id="Fill-82" fill="#eee"></path> <path d="M357.7331,104.7929 C357.3891,103.7889 356.8571,102.1119 356.5891,101.4179 C356.3141,100.7449 355.9261,100.1069 355.7611,99.4149 C355.6771,99.0739 355.9201,98.5999 356.1111,98.2549 C356.1711,98.1479 356.6291,98.2629 356.9041,98.2839 C358.0611,98.3749 357.9271,99.3799 358.1481,100.1389 C358.3871,100.9499 358.5561,103.2049 358.7731,104.0089 C359.0271,104.9549 358.8311,105.1169 357.8831,104.9509 C357.7501,104.9279 357.6521,104.6969 357.7331,104.7929" id="Fill-84" fill="#eee"></path> <path d="M362.3591,159.9423 C362.0971,158.4883 361.8271,157.2753 361.6661,156.0483 C361.5111,154.9053 361.4251,153.7453 361.4491,152.5963 C361.4541,152.3673 362.1521,151.9633 362.5091,151.9853 C362.8761,152.0083 363.5131,152.4533 363.5191,152.7233 C363.5551,154.7683 363.4551,156.8143 363.3831,158.8593 C363.3721,159.2153 363.4371,159.5913 363.3381,159.9203 C363.2941,160.0653 362.9331,160.1953 362.7241,160.1853 C362.5471,160.1773 362.3801,159.9583 362.3591,159.9423" id="Fill-86" fill="#eee"></path> <g id="Group-90" transform="translate(361.000000, 165.155000)"><mask id="mask-4" fill="white"><use xlink:href="#path-3"></use></mask> <g id="Clip-89"></g> <path d="M2.0251,0.4094 C2.7451,0.6654 2.7061,1.2834 2.7461,1.8054 C2.8321,2.9224 2.7091,4.0574 2.6251,5.1814 C2.5681,5.9514 2.3111,6.7224 2.3671,7.4764 C2.4081,8.0404 2.1721,8.3254 1.5401,8.4974 C1.4611,8.5184 1.2651,8.4114 1.2551,8.3444 C0.9901,6.5294 1.0461,4.8424 0.7701,3.0304 C0.7131,2.6694 0.6061,2.3164 0.5211,1.9614 C0.3501,1.2444 1.0021,0.4194 2.0251,0.4094" id="Fill-88" fill="#eee" mask="url(#mask-4)"></path></g> <path d="M361.8161,145.2158 C361.6231,144.1688 361.4411,142.4088 361.2931,141.6718 C361.1521,140.9518 360.9271,140.2358 360.9071,139.5148 C360.8961,139.1588 361.2281,138.7478 361.5051,138.4548 C361.5891,138.3648 362.0031,138.5858 362.2651,138.6688 C363.3731,139.0208 363.0361,139.9508 363.0831,140.7328 C363.1351,141.5638 362.8931,143.7928 362.9701,144.6188 C363.0661,145.5888 362.8461,145.7178 361.9391,145.3978 C361.8101,145.3528 361.7521,145.1078 361.8161,145.2158" id="Fill-91" fill="#eee"></path></g></g></g></g></svg>