<svg width="5px" height="164px" viewBox="0 0 5 164" version="1.1" xmlns="http://www.w3.org/2000/svg" xmlns:xlink="http://www.w3.org/1999/xlink"><defs><polygon id="path-1" points="0.305501097 0.0323 2.595 0.0323 2.595 8.45843037 0.305501097 8.45843037"></polygon></defs> <g id="Homepage" stroke="none" stroke-width="1" fill="none" fill-rule="evenodd"><g id="Homepage-Copy-2" transform="translate(-638.000000, -3154.000000)"><g id="line" transform="translate(638.000000, 3154.000000)"><path d="M2.019,22.4237 C1.72,20.9187 1.388,19.6657 1.187,18.3927 C0.997,17.2067 0.865,16.0007 0.858995643,14.8027 C0.857,14.5647 1.544,14.1247 1.903,14.1387 C2.269,14.1527 2.919,14.5977 2.932,14.8797 C3.029,17.0047 3.001,19.1337 3.01,21.2617 C3.009,21.6327 3.083,22.0217 2.996,22.3677 C2.957,22.5197 2.602,22.6677 2.392,22.6647448 C2.214,22.6617 2.04,22.4387 2.019,22.4237" id="Fill-1" fill="#eee"></path> <path d="M2.8901,28.2484 C3.6221,28.4874 3.6101,29.1304 3.6721,29.6724 C3.8081,30.8294 3.7401,32.0134 3.6961,33.1854 C3.6691,33.9874 3.4501,34.8004 3.5361,35.5814 C3.6021,36.1654 3.3801,36.4724 2.7571,36.6804 C2.6791,36.7064 2.4781,36.6034 2.4651,36.5344 C2.1131,34.6594 2.1101,32.8994 1.7531,31.0254 C1.6811,30.6514 1.5571,30.2894 1.4561,29.9214 C1.2541,29.1834 1.8691,28.2974 2.8901,28.2484" id="Fill-3" fill="#eee"></path> <path d="M1.0258,7.1087 C0.8018,6.0217 0.5818,4.1927 0.4228,3.4257 C0.2698,2.6787 0.0298,1.9357 0.0008,1.1837 C-0.0142,0.8127 0.3148,0.3797 0.5878,0.0717 C0.6718,-0.0223 1.0878,0.2027 1.3508,0.2857 C2.4608,0.6387 2.1328,1.6087 2.1958,2.4217 C2.2628,3.2837 2.0618,5.6067 2.1648,6.4637 C2.2848,7.4707 2.0678,7.6097 1.1528,7.2957 C1.0228,7.2517 0.9588,6.9967 1.0258,7.1087" id="Fill-5" fill="#eee"></path> <path d="M3.1499,64.8157 C2.8999,63.3007 2.6229,62.0367 2.4639,60.7577 C2.3169,59.5657 2.2289,58.3547 2.2659,57.1577 C2.2729,56.9197 2.9759,56.5047 3.3339,56.5317 C3.6989,56.5597 4.3329,57.0287 4.3359,57.3097 C4.3539,59.4367 4.2529,61.5637 4.1799,63.6907 C4.1669,64.0607 4.2279,64.4517 4.1289,64.7947 C4.0859,64.9457 3.7239,65.0797 3.5149,65.0697 C3.3379,65.0607 3.1709,64.8327 3.1499,64.8157" id="Fill-7" fill="#eee"></path> <g id="Group-11" transform="translate(2.000000, 70.635000)"><mask id="mask-2" fill="white"><use xlink:href="#path-1"></use></mask> <g id="Clip-10"></g> <path d="M1.8247,0.0323 C2.5477,0.2963 2.5127,0.9373 2.5577,1.4813 C2.6547,2.6413 2.5427,3.8233 2.4637,4.9923 C2.4107,5.7933 2.1657,6.5983 2.2287,7.3823 C2.2747,7.9683 2.0447,8.2663 1.4157,8.4553 C1.3367,8.4783 1.1387,8.3693 1.1287,8.3003 C0.8367,6.4143 0.8837,4.6553 0.5937,2.7693 C0.5337,2.3943 0.4227,2.0273 0.3347,1.6563 C0.1577,0.9113 0.8017,0.0473 1.8247,0.0323" id="Fill-9" fill="#eee" mask="url(#mask-2)"></path></g> <path d="M2.7212,49.4739 C2.5402,48.3789 2.3892,46.5429 2.2612,45.7699 C2.1362,45.0179 1.9252,44.2659 1.9242,43.5129 C1.9242,43.1419 2.2692,42.7219 2.5542,42.4249 C2.6422,42.3329 3.0492,42.5749 3.3082,42.6689 C4.4042,43.0649 4.0392,44.0219 4.0712,44.8359 C4.1052,45.6999 3.8142,48.0129 3.8842,48.8739 C3.9652,49.8839 3.7432,50.0139 2.8412,49.6649 C2.7132,49.6159 2.6582,49.3599 2.7212,49.4739" id="Fill-12" fill="#eee"></path> <path d="M3.0073,107.2269 C2.7913,105.7059 2.5523,104.4349 2.4263,103.1519 C2.3103,101.9559 2.2553,100.7439 2.3233,99.5469 C2.3373,99.3089 3.0503,98.9139 3.4063,98.9509 C3.7723,98.9879 4.3933,99.4739 4.3883,99.7539 C4.3503,101.8799 4.1933,104.0039 4.0643,106.1269 C4.0403,106.4979 4.0933,106.8899 3.9863,107.2289 C3.9393,107.3789 3.5743,107.5049 3.3653,107.4899 C3.1893,107.4769 3.0283,107.2439 3.0073,107.2269" id="Fill-14" fill="#eee"></path> <path d="M3.5405,113.092029 C4.2575,113.3731 4.2085,114.0141 4.2385,114.5581 C4.3075,115.7201 4.1675,116.8981 4.0645,118.0651 C3.9955,118.8641 3.7325,119.6641 3.7785,120.4481 C3.8125,121.0351 3.5755,121.3291 2.9425,121.5041 C2.8625,121.5261 2.6685,121.4121 2.6585,121.3421 C2.4075,119.4501 2.4905,117.6931 2.2435,115.8011 C2.1935,115.4241 2.0915,115.0541 2.0125,114.6821 C1.8535,113.9321 2.5185,113.0831 3.5405,113.092029" id="Fill-16" fill="#eee"></path> <path d="M2.9917,91.8773 C2.8437,90.7783 2.7457,88.9383 2.6397,88.1613 C2.5367,87.4053 2.3467,86.6473 2.3687,85.8953 C2.3797,85.5233 2.7367,85.1143 3.0297,84.8263 C3.1207,84.7373 3.5197,84.9903 3.7767,85.0923 C4.8597,85.5223 4.4687,86.4663 4.4757,87.2813 C4.4847,88.1463 4.1277,90.4483 4.1717,91.3113 C4.2237,92.3223 3.9997,92.4463 3.1067,92.0723 C2.9797,92.0193 2.9317,91.7613 2.9917,91.8773" id="Fill-18" fill="#eee"></path> <path d="M2.0278,149.6302 C1.8318,148.1062 1.6108,146.8312 1.5068,145.5462 C1.4118,144.3482 1.3758,143.1342 1.4638,141.9402 C1.4808,141.7012 2.2008,141.3172 2.5558,141.3602 C2.9218,141.4042 3.5338,141.9002 3.5248,142.1802 C3.4538,144.3052 3.2568,146.4252 3.0988,148.5462 C3.0718,148.9162 3.1178,149.3092 3.0068,149.6472 C2.9568,149.7962 2.5908,149.9162 2.3818,149.8982 C2.2058,149.8822 2.0488,149.6472 2.0278,149.6302" id="Fill-20" fill="#eee"></path> <path d="M2.4799,155.5023 C3.1929,155.7923 3.1349,156.4323 3.1589,156.9763 C3.2089,158.1393 3.0579,159.3153 2.9419,160.4803 C2.8639,161.2783 2.5919,162.0753 2.6289,162.8593 C2.6579,163.4463 2.4179,163.7383 1.7819,163.9053 C1.7019,163.9273 1.5079,163.8113 1.4999,163.7413 C1.2699,161.8463 1.3729,160.0893 1.1469,158.1943 C1.1009,157.8163 1.0039,157.4453 0.9299,157.0723 C0.7819,156.3203 1.4579,155.4793 2.4799,155.5023" id="Fill-22" fill="#eee"></path> <path d="M2.2651,134.2811 C2.1361,133.1791 2.0741,131.3371 1.9831,130.5591 C1.8941,129.8011 1.7181,129.0381 1.7541,128.2861 C1.7721,127.9151 2.1361,127.5131 2.4351,127.2311 C2.5281,127.1441 2.9221,127.4061 3.1771,127.5121 C4.2511,127.9631 3.8421,128.9001 3.8351,129.7141 C3.8271,130.5781 3.4261,132.8731 3.4541,133.7371 C3.4881,134.7491 3.2601,134.8681 2.3751,134.4781 C2.2491,134.4231 2.2061,134.1641 2.2651,134.2811" id="Fill-24" fill="#eee"></path></g></g></g></svg>