<svg version="1.2" xmlns="http://www.w3.org/2000/svg" viewBox="0 0 1200 1800" width="1200" height="1800">
	<title>New Project</title>
	<style>
		.s0 { opacity: .3;fill: #ffffff } 
		.s1 { opacity: .4;fill: #ffffff } 
		.s2 { opacity: .5;fill: #ffffff } 
		.s3 { fill: #ffffff } 
	</style>
	<path class="s0" d="m-51.1 2214l7.8-686.6c91.2 26.9 182.4 53.8 265.3 65.5 82.9 11.8 157.5 8.4 271.2-12.5 113.8-20.9 266.6-59.4 390.2-82.9 123.7-23.6 218.2-32.3 305.8-64.4 87.6-32 168.4-87.3 249.1-142.6l-7.8 686.6z"/>
	<path class="s1" d="m-333.8 1645.4l248.8-682.9c89.9 155.8 179.8 311.6 292.3 388.9 112.6 77.3 247.7 76.2 330.6 95.3 82.9 19.1 113.4 58.4 215.5 121.1 102.1 62.7 275.6 148.9 417.5 150.2 141.8 1.3 251.9-82.2 362.1-165.8l-248.9 682.8z"/>
	<path class="s2" d="m-32.4 1926.3v-697c116.4 173.3 232.7 346.6 338 404.2 105.2 57.7 199.4-0.4 290.5-19.1 91.1-18.8 179.1 1.8 273.4 15.7 94.2 13.8 194.6 20.8 287.5-47.1 92.8-67.9 178-210.8 263.3-353.7v697z"/>
	<path class="s3" d="m-84.8 1926.3v-697c74.1 211.9 148.2 423.9 262.9 503.6 114.7 79.6 270.1 27 404.5-5.2 134.4-32.2 247.8-44 342.7-10.5 95 33.5 171.5 112.1 269.7 38.3 98.3-73.8 218.2-300 338.2-526.2v697z"/>
	<path id="Layer copy" class="s0" d="m1344.5-574.4l-7.8 686.5c-91.2-26.8-182.3-53.7-265.2-65.5-83-11.7-157.6-8.4-271.3 12.5-113.7 21-266.6 59.4-390.2 83-123.7 23.6-218.1 32.3-305.8 64.3-87.6 32-168.3 87.3-249.1 142.6l7.8-686.5z"/>
	<path id="Layer copy 2" class="s1" d="m1627.2-5.8l-248.8 682.8c-89.9-155.8-179.8-311.5-292.3-388.9-112.5-77.3-247.7-76.2-330.6-95.3-82.8-19.1-113.4-58.3-215.5-121.1-102.1-62.7-275.6-148.9-417.5-150.2-141.8-1.3-251.9 82.3-362 165.9l248.8-682.9z"/>
	<path id="Layer copy 3" class="s2" d="m1325.8-286.8v697.1c-116.3-173.3-232.7-346.7-337.9-404.3-105.3-57.6-199.5 0.4-290.6 19.2-91.1 18.7-179.1-1.9-273.3-15.7-94.3-13.8-194.7-20.9-287.5 47-92.9 68-178.1 210.9-263.3 353.8v-697.1z"/>
	<path id="Layer copy 4" class="s3" d="m1378.3-286.8v697.1c-74.1-212-148.2-424-263-503.6-114.7-79.7-270.1-27-404.5 5.2-134.4 32.2-247.8 43.9-342.7 10.4-95-33.4-171.5-112.1-269.7-38.3-98.2 73.8-218.2 300-338.2 526.3v-697.1z"/>
</svg>